<?xml version="1.0" encoding="utf-8"?>
<!-- Generator: Adobe Illustrator 20.1.0, SVG Export Plug-In . SVG Version: 6.00 Build 0)  -->
<svg version="1.1" id="Layer_1" xmlns="http://www.w3.org/2000/svg" xmlns:xlink="http://www.w3.org/1999/xlink" x="0px" y="0px"
	 viewBox="0 0 5.5 10.5" style="enable-background:new 0 0 5.5 10.5;" xml:space="preserve">
<style type="text/css">
	.st0{fill:#FFFFFF;}
</style>
<title>facebookWhite</title>
<path class="st0" d="M4.4,1.7c0.3,0,0.6,0,1,0h0.1V0.1L5,0C4.6,0,4.3,0,4,0C3.5,0,3,0.2,2.6,0.4C2.1,0.8,1.8,1.3,1.7,1.9
	c0,0.2-0.1,0.5-0.1,0.7c0,0.4,0,0.8,0,1.1v0.1H0v1.9h1.6v4.7h2V5.7h1.6l0.3-1.9H3.6c0,0,0-0.9,0-1.3C3.6,1.9,3.9,1.8,4.4,1.7z"/>
</svg>
