<svg id="Layer_1" data-name="Layer 1" xmlns="http://www.w3.org/2000/svg" viewBox="0 0 23.98 23.98"><defs><style>.cls-1,.cls-2{fill:#fff;}.cls-2{fill-rule:evenodd;}</style></defs><title>facebookWhite</title><path class="cls-1" d="M23.39,8.28A12,12,0,1,1,12,0,12,12,0,0,1,23.39,8.28ZM12,1.08A10.91,10.91,0,1,0,22.36,8.62,10.91,10.91,0,0,0,12,1.08Z"/><path class="cls-2" d="M13.62,8.54c.33,0,.65,0,1,0h.13V6.85l-.54-.05c-.33,0-.67,0-1,0a2.46,2.46,0,0,0-1.41.44,2.12,2.12,0,0,0-.85,1.41,4.94,4.94,0,0,0-.06.73c0,.38,0,.76,0,1.14v.14H9.25v1.89h1.61v4.75h2V12.53h1.6l.25-1.9H12.81s0-.94,0-1.34C12.84,8.73,13.17,8.56,13.62,8.54Z"/></svg>