<?xml version="1.0" encoding="utf-8"?>
<!-- Generator: Adobe Illustrator 20.1.0, SVG Export Plug-In . SVG Version: 6.00 Build 0)  -->
<svg version="1.1" id="Layer_1" xmlns="http://www.w3.org/2000/svg" xmlns:xlink="http://www.w3.org/1999/xlink" x="0px" y="0px"
	 viewBox="0 0 13.1 8.3" style="enable-background:new 0 0 13.1 8.3;" xml:space="preserve">
<style type="text/css">
	.st0{fill:#FFFFFF;}
</style>
<title>googleWhite</title>
<path class="st0" d="M4.1,3.3C4.1,3.3,4.1,3.3,4.1,3.3c0,0.6,0,1.7,0,1.7h2.2C6.3,5.5,6,6,5.5,6.3C5.2,6.5,4.8,6.6,4.3,6.6
	c-0.3,0-0.6,0-0.9-0.1C2.5,6.2,1.8,5.4,1.7,4.4c0-0.3,0-0.5,0.1-0.8c0.3-1.2,1.5-2.1,2.7-1.9C5,1.8,5.4,2,5.7,2.3l1.2-1.3
	C6.7,0.9,6.4,0.7,6.2,0.5C5.6,0.2,4.9,0,4.2,0H3.8C3.6,0,3.4,0,3.1,0.1c-1.8,0.4-3,2-3.1,3.8c0,0.4,0,0.8,0.1,1.1
	c0.2,1,0.8,1.9,1.6,2.5C2.4,8,3.1,8.3,3.9,8.3c0.5,0,0.9,0,1.4-0.1c0.8-0.2,1.5-0.7,2-1.3c0.7-1,1-2.3,0.7-3.5L4.1,3.3z"/>
<polygon class="st0" points="13,3.4 11.6,3.4 11.6,2 11.6,2 11.6,2 10.5,2 10.5,2 10.5,2 10.5,3.4 9.1,3.4 9,3.4 9,3.4 9,4.5 9,4.5 
	9.1,4.5 10.5,4.5 10.5,5.9 10.5,6 10.5,6 11.6,6 11.6,6 11.6,5.9 11.6,4.5 13,4.5 13.1,4.5 13.1,4.5 13.1,3.4 13.1,3.4 "/>
</svg>
