<svg id="Layer_1" data-name="Layer 1" xmlns="http://www.w3.org/2000/svg" viewBox="0 0 13.06 8.27"><title>googlePlusBlack</title><path d="M4.13,3.31s0,0,0,.07c0,.5,0,1.6,0,1.6H6.34a1.88,1.88,0,0,1-.81,1.24,2.37,2.37,0,0,1-1.2.39,2.41,2.41,0,0,1-.9-.1A2.49,2.49,0,0,1,1.72,4.34a2.38,2.38,0,0,1,.05-.75,2.44,2.44,0,0,1,2.72-1.9,2.23,2.23,0,0,1,1.22.59l1.2-1.2A5.08,5.08,0,0,0,6.18.53a3.94,3.94,0,0,0-2-.53h-.4a3.28,3.28,0,0,0-.68.11A4.09,4.09,0,0,0,.92,1.53,4.06,4.06,0,0,0,0,3.9,3.92,3.92,0,0,0,.1,5,4.09,4.09,0,0,0,1.71,7.48a4,4,0,0,0,2.21.78,4.41,4.41,0,0,0,1.36-.13,3.6,3.6,0,0,0,2-1.34A4.43,4.43,0,0,0,8,3.31Z"/><polygon points="13.02 3.36 11.62 3.36 11.62 1.96 11.62 1.92 11.58 1.92 10.53 1.92 10.49 1.92 10.49 1.96 10.49 3.36 9.09 3.36 9.05 3.36 9.05 3.4 9.05 4.45 9.05 4.49 9.09 4.49 10.49 4.49 10.49 5.89 10.49 5.93 10.53 5.93 11.58 5.93 11.62 5.93 11.62 5.89 11.62 4.49 13.02 4.49 13.06 4.49 13.06 4.45 13.06 3.4 13.06 3.36 13.02 3.36"/></svg>