<svg id="Layer_1" data-name="Layer 1" xmlns="http://www.w3.org/2000/svg" viewBox="0 0 23.98 23.98"><defs><style>.cls-1{fill:#fff;}</style></defs><title>googleWhite</title><path class="cls-1" d="M23.39,8.28A12,12,0,1,1,12,0,12,12,0,0,1,23.39,8.28ZM12,1.08A10.91,10.91,0,1,0,22.36,8.62,10.91,10.91,0,0,0,12,1.08Z"/><path class="cls-1" d="M10.32,11.27s0,0,0,.07c0,.5,0,1.6,0,1.6h2.21a1.88,1.88,0,0,1-.81,1.24,2.37,2.37,0,0,1-1.2.39,2.41,2.41,0,0,1-.9-.1,2.49,2.49,0,0,1-1.71-2.15A2.38,2.38,0,0,1,8,11.56a2.44,2.44,0,0,1,2.72-1.9,2.23,2.23,0,0,1,1.22.59L13.11,9a5.08,5.08,0,0,0-.73-.54,3.94,3.94,0,0,0-2-.53H10a3.28,3.28,0,0,0-.68.11A4.14,4.14,0,0,0,6.2,11.86,3.92,3.92,0,0,0,6.29,13a4.09,4.09,0,0,0,1.62,2.47,4,4,0,0,0,2.21.78,4.41,4.41,0,0,0,1.36-.13,3.6,3.6,0,0,0,2-1.34,4.43,4.43,0,0,0,.71-3.49Z"/><polygon class="cls-1" points="19.21 11.32 17.81 11.32 17.81 9.92 17.81 9.88 17.77 9.88 16.73 9.88 16.68 9.88 16.68 9.92 16.68 11.32 15.28 11.32 15.24 11.32 15.24 11.36 15.24 12.41 15.24 12.45 15.28 12.45 16.68 12.45 16.68 13.85 16.68 13.89 16.73 13.89 17.77 13.89 17.81 13.89 17.81 13.85 17.81 12.45 19.21 12.45 19.26 12.45 19.26 12.41 19.26 11.36 19.26 11.32 19.21 11.32"/></svg>