<svg id="Layer_1" data-name="Layer 1" xmlns="http://www.w3.org/2000/svg" viewBox="0 0 23.98 23.98"><defs><style>.cls-1{fill:#fff;}</style></defs><title>linkedinWhite</title><path class="cls-1" d="M23.39,8.28A12,12,0,1,1,12,0,12,12,0,0,1,23.39,8.28ZM12,1.08A10.91,10.91,0,1,0,22.36,8.62,10.91,10.91,0,0,0,12,1.08Z"/><path class="cls-1" d="M8.23,10.16h2V16.5h-2ZM9.22,7A1.14,1.14,0,1,1,8.08,8.15,1.14,1.14,0,0,1,9.22,7"/><path class="cls-1" d="M11.44,10.16h1.89V11h0a2.07,2.07,0,0,1,1.87-1c2,0,2.36,1.31,2.36,3V16.5h-2V13.42c0-.74,0-1.68-1-1.68s-1.18.8-1.18,1.63V16.5h-2Z"/></svg>