<?xml version="1.0" encoding="utf-8"?>
<!-- Generator: Adobe Illustrator 20.1.0, SVG Export Plug-In . SVG Version: 6.00 Build 0)  -->
<svg version="1.1" id="Layer_1" xmlns="http://www.w3.org/2000/svg" xmlns:xlink="http://www.w3.org/1999/xlink" x="0px" y="0px"
	 viewBox="0 0 9.5 9.5" style="enable-background:new 0 0 9.5 9.5;" xml:space="preserve">
<style type="text/css">
	.st0{fill:#FFFFFF;}
</style>
<title>linkedinWhite</title>
<path class="st0" d="M0.2,3.2h2v6.3h-2V3.2z M1.1,0c0.6,0,1.1,0.5,1.1,1.1c0,0.6-0.5,1.1-1.1,1.1C0.5,2.3,0,1.8,0,1.1
	C0,0.5,0.5,0,1.1,0C1.1,0,1.1,0,1.1,0"/>
<path class="st0" d="M3.4,3.2h1.9V4l0,0c0.4-0.7,1.1-1,1.9-1c2,0,2.4,1.3,2.4,3v3.5h-2V6.4c0-0.7,0-1.7-1-1.7S5.3,5.5,5.3,6.4v3.1
	h-2L3.4,3.2z"/>
</svg>
