<svg id="Layer_1" data-name="Layer 1" xmlns="http://www.w3.org/2000/svg" viewBox="0 0 23.98 23.98"><defs><style>.cls-1,.cls-2{fill:#fff;}.cls-2{fill-rule:evenodd;}</style></defs><title>pinterestWhite</title><path class="cls-1" d="M23.39,8.28A12,12,0,1,1,12,0,12,12,0,0,1,23.39,8.28ZM12,1.08A10.91,10.91,0,1,0,22.36,8.62,10.91,10.91,0,0,0,12,1.08Z" transform="translate(0 0)"/><path class="cls-2" d="M11.59,13.7l0,.08a9.09,9.09,0,0,1-.85,2.62,8,8,0,0,1-.66,1s-.05.08-.11.07-.06-.07-.07-.12a8.34,8.34,0,0,1-.09-1.42,24.6,24.6,0,0,1,.9-4.2.23.23,0,0,0,0-.14A2.37,2.37,0,0,1,10.61,10c.36-1.15,1.66-1.24,1.89-.29A6.88,6.88,0,0,1,12,12.19c-.24.94.87,1.6,1.81.92A4,4,0,0,0,14.93,9.9C14.81,7.77,12.47,7.31,11,8a2.74,2.74,0,0,0-1.32,3.86c.1.12.17.2.14.32s-.09.39-.15.58a.21.21,0,0,1-.3.14,1.75,1.75,0,0,1-.71-.53,3.37,3.37,0,0,1,0-3.76A4.51,4.51,0,0,1,13,6.68a3.69,3.69,0,0,1,3.39,3,5.07,5.07,0,0,1-.93,3.56,2.6,2.6,0,0,1-3.72.62C11.7,13.85,11.65,13.77,11.59,13.7Z" transform="translate(0 0)"/></svg>