<svg id="Layer_1" data-name="Layer 1" xmlns="http://www.w3.org/2000/svg" viewBox="0 0 23.98 23.98"><defs><style>.cls-1{fill:#fff;}</style></defs><title>rssWhite</title><path class="cls-1" d="M23.39,8.28A12,12,0,1,1,12,0,12,12,0,0,1,23.39,8.28ZM12,1.08A10.91,10.91,0,1,0,22.36,8.62,10.91,10.91,0,0,0,12,1.08Z" transform="translate(0 0)"/><circle class="cls-1" cx="8.45" cy="15.21" r="1.35"/><path class="cls-1" d="M7.1,12a4.58,4.58,0,0,1,4.58,4.6h1.88A6.48,6.48,0,0,0,7.1,10.09Z" transform="translate(0 0)"/><path class="cls-1" d="M7.1,8.63A7.93,7.93,0,0,1,15,16.58h1.88A9.82,9.82,0,0,0,7.1,6.75Z" transform="translate(0 0)"/></svg>