<?xml version="1.0" encoding="utf-8"?>
<!-- Generator: Adobe Illustrator 20.1.0, SVG Export Plug-In . SVG Version: 6.00 Build 0)  -->
<svg version="1.1" id="Layer_1" xmlns="http://www.w3.org/2000/svg" xmlns:xlink="http://www.w3.org/1999/xlink" x="0px" y="0px"
	 viewBox="0 0 11.3 9.2" style="enable-background:new 0 0 11.3 9.2;" xml:space="preserve">
<style type="text/css">
	.st0{fill:#FFFFFF;}
</style>
<title>twitterWhite</title>
<path class="st0" d="M3.5,7.2c-1,0-1.9-0.7-2.2-1.6c0.3,0.1,0.7,0.1,1,0l0,0C1.7,5.5,1.1,5.1,0.8,4.5C0.6,4.2,0.4,3.7,0.5,3.3
	c0.3,0.2,0.6,0.3,1,0.3c-0.5-0.3-0.9-0.8-1-1.4C0.3,1.6,0.4,1,0.7,0.5c1.2,1.4,2.9,2.3,4.8,2.4c0-0.1,0-0.2,0-0.3
	C5.3,1.4,6.2,0.2,7.4,0C8.2-0.1,9,0.2,9.5,0.7c0,0,0.1,0,0.1,0c0.5-0.1,0.9-0.3,1.4-0.5l0,0l0,0c-0.2,0.5-0.5,1-1,1.3
	c0.4-0.1,0.9-0.2,1.3-0.4l0,0L11,1.5c-0.2,0.3-0.5,0.6-0.8,0.8c0,0,0,0,0,0.1c0,0.3,0,0.7,0,1c-0.1,0.7-0.3,1.4-0.6,2.1
	C9.2,6.1,8.8,6.7,8.3,7.3c-0.9,0.9-2,1.5-3.2,1.8C4.6,9.2,4.2,9.2,3.8,9.2c-1.3,0-2.6-0.3-3.7-1H0c0.8,0.1,1.6,0,2.3-0.3
	C2.7,7.7,3.1,7.5,3.5,7.2z"/>
</svg>
