<svg id="Layer_1" data-name="Layer 1" xmlns="http://www.w3.org/2000/svg" viewBox="0 0 12.89 10.49"><defs><style>.cls-1{fill:#231f20;fill-rule:evenodd;}</style></defs><title>twitterBlack</title><path class="cls-1" d="M3.91,8.21A2.66,2.66,0,0,1,1.44,6.37a2.62,2.62,0,0,0,1.14,0l0,0A2.65,2.65,0,0,1,.9,5.1,2.58,2.58,0,0,1,.51,3.7,2.62,2.62,0,0,0,1.69,4,2.66,2.66,0,0,1,.6,2.41,2.62,2.62,0,0,1,.88.49,7.58,7.58,0,0,0,6.35,3.26c0-.11,0-.2,0-.29a2.57,2.57,0,0,1,.39-1.73A2.54,2.54,0,0,1,8.49,0a2.58,2.58,0,0,1,2.32.74.13.13,0,0,0,.14,0A5.36,5.36,0,0,0,12.49.23l0,0h0a2.71,2.71,0,0,1-1.13,1.44,5.1,5.1,0,0,0,1.48-.4h0l-.3.4a5.21,5.21,0,0,1-1,.91.09.09,0,0,0,0,.08,7.33,7.33,0,0,1,0,1.18,7.8,7.8,0,0,1-.68,2.36A7.61,7.61,0,0,1,9.42,8.28a7.08,7.08,0,0,1-3.64,2,7.92,7.92,0,0,1-1.48.17A7.48,7.48,0,0,1,.06,9.35L0,9.31a5.36,5.36,0,0,0,2.65-.37A5.3,5.3,0,0,0,3.91,8.21Z"/></svg>